<svg viewBox="0 0 252 69" fill="none" xmlns="http://www.w3.org/2000/svg">
<path fill-rule="evenodd" clip-rule="evenodd" d="M7.82684 0.230123C7.36089 0.461904 6.96851 0.90792 6.81549 1.37971C6.7679 1.52611 5.91663 7.31241 4.92369 14.2381C0.804877 42.9655 0.248628 46.7955 0.126634 47.2654C-0.679573 50.3722 2.39678 51.9318 8.41075 51.4653C13.8295 51.045 20.8296 49.182 27.4078 46.4092C29.6064 45.4825 32.4055 44.1292 33.8795 43.2803C34.2553 43.0639 34.5831 42.9073 34.608 42.9321C34.633 42.957 34.5951 43.2541 34.5239 43.5925C34.4527 43.9308 33.6548 47.6925 32.7508 51.952C31.692 56.9407 31.1071 59.8701 31.1071 60.1849C31.1071 60.9247 31.3141 61.393 32.1127 62.4596C32.5131 62.9943 33.5922 64.4517 34.5108 65.6983C35.4294 66.945 36.3162 68.0933 36.4816 68.2502C36.888 68.6357 37.5725 68.9379 38.16 68.991C38.557 69.027 38.9259 68.9634 40.1938 68.6405C41.9457 68.1944 54.9543 64.8499 56.372 64.4811C56.8807 64.3488 59.2264 63.7447 61.5848 63.1387C63.9431 62.5328 66.5158 61.8715 67.302 61.6691C68.0881 61.4668 69.4123 61.1263 70.2446 60.9124C71.077 60.6986 72.1742 60.4159 72.6828 60.2842C73.1915 60.1525 74.44 59.8309 75.4574 59.5694C78.0501 58.9034 78.3775 58.81 78.702 58.6442C79.234 58.3723 79.5904 58.0271 79.8594 57.523C80.1256 57.0244 80.1427 56.913 82.5636 39.9958C83.9036 30.6319 85 22.7406 85 22.4598C85 22.179 84.9428 21.782 84.873 21.5775C84.8032 21.3731 84.2697 20.5636 83.6877 19.7787C83.1056 18.9938 82.0182 17.5205 81.2714 16.5047C79.6338 14.2776 79.173 13.7836 78.5019 13.5362C77.6058 13.2056 77.3155 13.2508 73.4203 14.3268C71.4887 14.8604 68.6219 15.6509 67.0497 16.0835C65.4775 16.5161 62.621 17.3042 60.702 17.8347C58.7829 18.3653 56.7777 18.919 56.2459 19.0651C55.7141 19.2113 54.2575 19.6132 53.009 19.9581C51.7605 20.303 49.2256 21.0012 47.3759 21.5095C39.2133 23.7528 39.6959 23.5972 39.1046 24.1759C38.553 24.7159 38.4315 25.054 37.9856 27.2921C37.935 27.546 37.869 27.7817 37.8389 27.816C37.8089 27.8501 36.5941 26.702 35.1393 25.2645C30.5187 20.6987 10.9214 1.24262 10.5261 0.828506C9.73453 -0.000482196 8.73537 -0.221937 7.82684 0.230123ZM10.5281 2.80129C10.8377 2.94736 12.9181 4.96732 19.8861 11.8876C24.8142 16.7818 30.5261 22.4483 32.5792 24.4798C35.9544 27.8194 36.3183 28.2057 36.3751 28.5093C36.5151 29.2566 36.3721 29.8059 35.897 30.3463C35.4685 30.8335 35.1303 30.9619 34.0021 31.0663C25.5062 31.8518 13.3508 36.2327 6.07074 41.1328C4.5387 42.164 4.49717 42.1848 3.97791 42.1791C3.24796 42.171 2.62715 41.721 2.43806 41.0627C2.31875 40.6475 7.55721 4.21304 7.80632 3.72547C8.0113 3.32428 8.51475 2.87357 8.92252 2.72624C9.38898 2.55767 10.0804 2.58999 10.5281 2.80129ZM74.8718 15.3791C76.2196 15.6279 77.2012 16.7363 77.1915 17.9985C77.1877 18.491 76.856 20.701 75.7081 27.8797C75.4978 29.1956 75.2924 30.4989 75.2518 30.7759C75.1805 31.2617 73.9436 39.055 73.6929 40.5978C73.6254 41.0134 73.3597 42.6944 73.1026 44.3335C72.8455 45.9726 72.5761 47.4753 72.504 47.6729C72.3122 48.1979 71.8048 48.7923 71.3267 49.0518C71.0785 49.1866 69.6107 49.6365 67.7179 50.1582C64.5399 51.0341 56.1497 53.3511 51.8319 54.5451C50.5834 54.8904 48.8241 55.3763 47.9224 55.6248C47.0207 55.8734 44.6939 56.5157 42.7517 57.0523C35.7869 58.9764 36.1699 58.881 35.5973 58.8351C34.5881 58.7542 33.6597 58.1074 33.2182 57.1776C32.8806 56.4667 32.9246 55.8915 33.5298 53.1061C33.8107 51.8133 34.2514 49.7545 34.5094 48.5309C34.7672 47.3074 35.0531 45.9568 35.1446 45.5298C35.2945 44.8299 35.4383 44.1511 35.7389 42.7243C35.794 42.4626 35.8621 42.2138 35.8903 42.1716C35.9185 42.1293 36.3009 41.8553 36.7402 41.5627C40.126 39.307 42.2215 37.217 42.9259 35.3931C43.1685 34.7648 43.1509 33.6712 42.8899 33.1684C42.7684 32.9343 41.934 32.0247 40.6952 30.7759L38.6964 28.7612L38.9762 27.46C39.1299 26.7443 39.329 26.0077 39.4186 25.823C39.662 25.3211 40.1178 24.8381 40.5527 24.6213C40.7655 24.5151 42.4445 24.013 44.2839 23.5056C46.1232 22.998 50.0306 21.9195 52.967 21.1089C55.9033 20.2983 58.9679 19.4532 59.7771 19.2309C60.5864 19.0087 62.5727 18.4616 64.1911 18.0151C65.8096 17.5687 68.004 16.9645 69.0676 16.6725C70.1311 16.3806 71.4853 16.0049 72.077 15.8378C73.2868 15.4958 74.0486 15.3049 74.2438 15.2944C74.3163 15.2906 74.5988 15.3287 74.8718 15.3791ZM63.7708 24.5527C62.6609 24.8462 58.3478 25.962 54.1861 27.0322C49.8925 28.1362 46.4299 29.0691 46.1817 29.1886C45.6359 29.4515 45.0331 30.1097 44.8604 30.6315C44.7883 30.8494 44.3487 32.841 43.8835 35.0573C43.4184 37.2735 42.6396 40.9756 42.153 43.2842C41.1781 47.9089 41.1461 48.2019 41.5304 48.9703C41.9393 49.7877 42.7718 50.3923 43.7176 50.5587C44.3227 50.6651 44.3445 50.6598 51.4956 48.6551C52.4205 48.3959 54.0473 47.9441 55.1109 47.6512C56.1745 47.3582 58.3499 46.7543 59.9453 46.3092C61.5406 45.864 63.2621 45.3865 63.7708 45.2481C64.9263 44.9334 65.4474 44.6931 65.8584 44.2851C66.4172 43.7305 66.567 43.3158 66.8346 41.5825C66.9682 40.7178 67.5369 37.0825 68.0987 33.5042C68.7445 29.3898 69.1084 26.8439 69.0886 26.5785C68.9868 25.2178 67.8062 24.1136 66.3817 24.047C65.8686 24.0229 65.5162 24.0912 63.7708 24.5527ZM65.0198 33.9632C65.5743 34.2437 66.1103 34.7956 66.3534 35.3364C66.6507 35.9975 66.633 36.3883 66.1698 39.3806C65.6528 42.7206 65.5577 42.99 64.6535 43.6778C64.3006 43.9462 64.0981 44.0155 61.879 44.6268C59.2221 45.3588 57.9699 45.7087 55.8255 46.3185C54.1998 46.7808 53.738 46.8809 53.2192 46.8836C52.1101 46.8894 51.1873 46.3063 50.6813 45.28C50.4593 44.8297 50.4121 44.6354 50.4133 44.1767C50.4151 43.4936 51.4783 38.4263 51.7367 37.8695C51.9616 37.385 52.5344 36.8133 52.9893 36.6193C53.3876 36.4495 53.9577 36.2835 58.9364 34.8874C60.8554 34.3493 62.5958 33.8566 62.8039 33.7924C63.0246 33.7243 63.4624 33.6838 63.8548 33.695C64.4103 33.7107 64.6132 33.7575 65.0198 33.9632Z" fill="#84658D"/>
<path d="M111.775 29L119.575 11.5H123.575L131.4 29H127.15L120.75 13.55H122.35L115.925 29H111.775ZM115.675 25.25L116.75 22.175H125.75L126.85 25.25H115.675ZM133.216 29V11.5H136.566L146.891 24.1H145.266V11.5H149.266V29H145.941L135.591 16.4H137.216V29H133.216ZM161.906 29.3C160.523 29.3 159.239 29.075 158.056 28.625C156.889 28.175 155.873 27.5417 155.006 26.725C154.156 25.9083 153.489 24.95 153.006 23.85C152.539 22.75 152.306 21.55 152.306 20.25C152.306 18.95 152.539 17.75 153.006 16.65C153.489 15.55 154.164 14.5917 155.031 13.775C155.898 12.9583 156.914 12.325 158.081 11.875C159.248 11.425 160.514 11.2 161.881 11.2C163.264 11.2 164.531 11.425 165.681 11.875C166.848 12.325 167.856 12.9583 168.706 13.775C169.573 14.5917 170.248 15.55 170.731 16.65C171.214 17.7333 171.456 18.9333 171.456 20.25C171.456 21.55 171.214 22.7583 170.731 23.875C170.248 24.975 169.573 25.9333 168.706 26.75C167.856 27.55 166.848 28.175 165.681 28.625C164.531 29.075 163.273 29.3 161.906 29.3ZM161.881 25.85C162.664 25.85 163.381 25.7167 164.031 25.45C164.698 25.1833 165.281 24.8 165.781 24.3C166.281 23.8 166.664 23.2083 166.931 22.525C167.214 21.8417 167.356 21.0833 167.356 20.25C167.356 19.4167 167.214 18.6583 166.931 17.975C166.664 17.2917 166.281 16.7 165.781 16.2C165.298 15.7 164.723 15.3167 164.056 15.05C163.389 14.7833 162.664 14.65 161.881 14.65C161.098 14.65 160.373 14.7833 159.706 15.05C159.056 15.3167 158.481 15.7 157.981 16.2C157.481 16.7 157.089 17.2917 156.806 17.975C156.539 18.6583 156.406 19.4167 156.406 20.25C156.406 21.0667 156.539 21.825 156.806 22.525C157.089 23.2083 157.473 23.8 157.956 24.3C158.456 24.8 159.039 25.1833 159.706 25.45C160.373 25.7167 161.098 25.85 161.881 25.85ZM177.881 29V14.8H172.281V11.5H187.531V14.8H181.931V29H177.881ZM201.71 11.5H205.76V29H201.71V11.5ZM193.76 29H189.71V11.5H193.76V29ZM202.01 21.825H193.46V18.4H202.01V21.825ZM213.625 18.55H222.05V21.7H213.625V18.55ZM213.925 25.75H223.45V29H209.9V11.5H223.125V14.75H213.925V25.75ZM226.673 29V11.5H234.248C235.814 11.5 237.164 11.7583 238.298 12.275C239.431 12.775 240.306 13.5 240.923 14.45C241.539 15.4 241.848 16.5333 241.848 17.85C241.848 19.15 241.539 20.275 240.923 21.225C240.306 22.1583 239.431 22.875 238.298 23.375C237.164 23.875 235.814 24.125 234.248 24.125H228.923L230.723 22.35V29H226.673ZM237.798 29L233.423 22.65H237.748L242.173 29H237.798ZM230.723 22.8L228.923 20.9H234.023C235.273 20.9 236.206 20.6333 236.823 20.1C237.439 19.55 237.748 18.8 237.748 17.85C237.748 16.8833 237.439 16.1333 236.823 15.6C236.206 15.0667 235.273 14.8 234.023 14.8H228.923L230.723 12.875V22.8ZM246.256 29.2C245.59 29.2 245.015 28.975 244.531 28.525C244.065 28.0583 243.831 27.4667 243.831 26.75C243.831 26.0333 244.065 25.4583 244.531 25.025C245.015 24.575 245.59 24.35 246.256 24.35C246.94 24.35 247.515 24.575 247.981 25.025C248.448 25.4583 248.681 26.0333 248.681 26.75C248.681 27.4667 248.448 28.0583 247.981 28.525C247.515 28.975 246.94 29.2 246.256 29.2ZM114.075 59V41.5H122.025C123.925 41.5 125.6 41.8667 127.05 42.6C128.5 43.3167 129.633 44.325 130.45 45.625C131.267 46.925 131.675 48.4667 131.675 50.25C131.675 52.0167 131.267 53.5583 130.45 54.875C129.633 56.175 128.5 57.1917 127.05 57.925C125.6 58.6417 123.925 59 122.025 59H114.075ZM118.125 55.675H121.825C122.992 55.675 124 55.4583 124.85 55.025C125.717 54.575 126.383 53.9417 126.85 53.125C127.333 52.3083 127.575 51.35 127.575 50.25C127.575 49.1333 127.333 48.175 126.85 47.375C126.383 46.5583 125.717 45.9333 124.85 45.5C124 45.05 122.992 44.825 121.825 44.825H118.125V55.675ZM138.454 48.55H146.879V51.7H138.454V48.55ZM138.754 55.75H148.279V59H134.729V41.5H147.954V44.75H138.754V55.75ZM156.508 59L148.958 41.5H153.333L159.933 57H157.358L164.058 41.5H168.083L160.508 59H156.508Z" fill="#84658D"/>
</svg>
